<?xml version="1.0" encoding="UTF-8"?><svg xmlns="http://www.w3.org/2000/svg" xmlns:xlink="http://www.w3.org/1999/xlink" contentScriptType="text/ecmascript" width="375" zoomAndPan="magnify" contentStyleType="text/css" viewBox="0 0 375 374.999991" height="374.999991" preserveAspectRatio="xMidYMid meet" version="1.0"><defs><clipPath id="clip-0"><path d="M 38.535156 203 L 214 203 L 214 250 L 38.535156 250 Z M 38.535156 203 " clip-rule="nonzero"/></clipPath><clipPath id="clip-1"><path d="M 38.535156 161 L 214 161 L 214 209 L 38.535156 209 Z M 38.535156 161 " clip-rule="nonzero"/></clipPath><clipPath id="clip-2"><path d="M 38.535156 126 L 142 126 L 142 168 L 38.535156 168 Z M 38.535156 126 " clip-rule="nonzero"/></clipPath><clipPath id="clip-3"><path d="M 130 126 L 336.285156 126 L 336.285156 275 L 130 275 Z M 130 126 " clip-rule="nonzero"/></clipPath><clipPath id="clip-4"><path d="M 130 110 L 336.285156 110 L 336.285156 142 L 130 142 Z M 130 110 " clip-rule="nonzero"/></clipPath><clipPath id="clip-5"><path d="M 218 285 L 249 285 L 249 341.78125 L 218 341.78125 Z M 218 285 " clip-rule="nonzero"/></clipPath><clipPath id="clip-6"><path d="M 218 33.53125 L 249 33.53125 L 249 91 L 218 91 Z M 218 33.53125 " clip-rule="nonzero"/></clipPath></defs><path fill="rgb(23.919678%, 44.709778%, 50.588989%)" d="M 130.988281 280.128906 C 128.164062 280.128906 125.859375 277.824219 125.859375 274.992188 L 125.859375 244.167969 C 125.859375 241.339844 128.164062 239.03125 130.988281 239.03125 C 133.8125 239.03125 136.117188 241.339844 136.117188 244.167969 L 136.117188 274.992188 C 136.117188 277.824219 133.8125 280.128906 130.988281 280.128906 " fill-opacity="1" fill-rule="nonzero"/><path fill="rgb(23.919678%, 44.709778%, 50.588989%)" d="M 177.152344 290.40625 L 141.246094 290.40625 C 138.421875 290.40625 136.117188 288.097656 136.117188 285.269531 C 136.117188 282.4375 138.421875 280.128906 141.246094 280.128906 L 177.152344 280.128906 C 179.976562 280.128906 182.28125 282.4375 182.28125 285.269531 C 182.28125 288.097656 179.976562 290.40625 177.152344 290.40625 " fill-opacity="1" fill-rule="nonzero"/><path fill="rgb(23.919678%, 44.709778%, 50.588989%)" d="M 120.730469 290.40625 L 84.824219 290.40625 C 82 290.40625 79.695312 288.097656 79.695312 285.269531 C 79.695312 282.4375 82 280.128906 84.824219 280.128906 L 120.730469 280.128906 C 123.554688 280.128906 125.859375 282.4375 125.859375 285.269531 C 125.859375 288.097656 123.554688 290.40625 120.730469 290.40625 " fill-opacity="1" fill-rule="nonzero"/><g clip-path="url(#clip-0)"><path fill="rgb(76.078796%, 78.42865%, 82.749939%)" d="M 213.054688 249.304688 L 48.921875 249.304688 C 43.25 249.304688 38.664062 244.710938 38.664062 239.03125 L 38.664062 218.480469 C 38.664062 212.800781 43.25 208.207031 48.921875 208.207031 L 48.921875 203.066406 L 213.054688 203.066406 L 213.054688 249.304688 " fill-opacity="1" fill-rule="nonzero"/></g><g clip-path="url(#clip-1)"><path fill="rgb(80.778503%, 83.529663%, 86.669922%)" d="M 213.054688 208.207031 L 48.921875 208.207031 C 43.25 208.207031 38.664062 203.609375 38.664062 197.929688 L 38.664062 177.378906 C 38.664062 171.703125 43.25 167.105469 48.921875 167.105469 L 48.921875 161.96875 L 141.246094 161.96875 L 213.054688 208.207031 " fill-opacity="1" fill-rule="nonzero"/></g><g clip-path="url(#clip-2)"><path fill="rgb(76.078796%, 78.42865%, 82.749939%)" d="M 136.117188 126.003906 L 48.921875 126.003906 C 43.269531 126.003906 38.664062 130.640625 38.664062 136.28125 L 38.664062 156.832031 C 38.664062 162.46875 43.269531 167.105469 48.921875 167.105469 L 141.246094 167.105469 L 136.117188 126.003906 " fill-opacity="1" fill-rule="nonzero"/></g><g clip-path="url(#clip-3)"><path fill="rgb(23.919678%, 44.709778%, 50.588989%)" d="M 130.988281 126.003906 L 130.988281 155.464844 C 130.988281 162.691406 134.773438 169.375 140.945312 173.085938 L 202.957031 210.351562 C 206.042969 212.21875 207.925781 215.550781 207.925781 219.164062 L 207.925781 264.699219 C 207.925781 271.984375 215.257812 276.960938 221.992188 274.25 L 252.765625 261.929688 C 256.675781 260.363281 259.21875 256.570312 259.21875 252.375 L 259.21875 219.164062 C 259.21875 215.550781 261.101562 212.21875 264.1875 210.351562 L 326.199219 173.085938 C 332.371094 169.375 336.15625 162.691406 336.15625 155.464844 L 336.15625 126.003906 L 130.988281 126.003906 " fill-opacity="1" fill-rule="nonzero"/></g><path fill="rgb(33.329773%, 57.649231%, 59.21936%)" d="M 146.375 285.269531 C 146.375 293.777344 139.484375 300.679688 130.988281 300.679688 C 122.492188 300.679688 115.601562 293.777344 115.601562 285.269531 C 115.601562 276.757812 122.492188 269.855469 130.988281 269.855469 C 139.484375 269.855469 146.375 276.757812 146.375 285.269531 " fill-opacity="1" fill-rule="nonzero"/><g clip-path="url(#clip-4)"><path fill="rgb(19.60907%, 38.819885%, 45.878601%)" d="M 336.15625 126.003906 C 336.15625 134.515625 290.234375 141.417969 233.574219 141.417969 C 176.910156 141.417969 130.988281 134.515625 130.988281 126.003906 C 130.988281 117.496094 176.910156 110.59375 233.574219 110.59375 C 290.234375 110.59375 336.15625 117.496094 336.15625 126.003906 " fill-opacity="1" fill-rule="nonzero"/></g><path fill="rgb(27.449036%, 67.449951%, 49.01886%)" d="M 64.308594 151.691406 L 59.179688 151.691406 C 56.355469 151.691406 54.050781 149.386719 54.050781 146.554688 C 54.050781 143.726562 56.355469 141.417969 59.179688 141.417969 L 64.308594 141.417969 C 67.132812 141.417969 69.4375 143.726562 69.4375 146.554688 C 69.4375 149.386719 67.132812 151.691406 64.308594 151.691406 " fill-opacity="1" fill-rule="nonzero"/><path fill="rgb(23.919678%, 44.709778%, 50.588989%)" d="M 89.953125 151.691406 L 84.824219 151.691406 C 82 151.691406 79.695312 149.386719 79.695312 146.554688 C 79.695312 143.726562 82 141.417969 84.824219 141.417969 L 89.953125 141.417969 C 92.78125 141.417969 95.085938 143.726562 95.085938 146.554688 C 95.085938 149.386719 92.78125 151.691406 89.953125 151.691406 " fill-opacity="1" fill-rule="nonzero"/><path fill="rgb(23.919678%, 44.709778%, 50.588989%)" d="M 89.953125 192.792969 L 84.824219 192.792969 C 82 192.792969 79.695312 190.484375 79.695312 187.65625 C 79.695312 184.824219 82 182.519531 84.824219 182.519531 L 89.953125 182.519531 C 92.78125 182.519531 95.085938 184.824219 95.085938 187.65625 C 95.085938 190.484375 92.78125 192.792969 89.953125 192.792969 " fill-opacity="1" fill-rule="nonzero"/><path fill="rgb(23.919678%, 44.709778%, 50.588989%)" d="M 89.953125 233.894531 L 84.824219 233.894531 C 82 233.894531 79.695312 231.585938 79.695312 228.753906 C 79.695312 225.925781 82 223.617188 84.824219 223.617188 L 89.953125 223.617188 C 92.78125 223.617188 95.085938 225.925781 95.085938 228.753906 C 95.085938 231.585938 92.78125 233.894531 89.953125 233.894531 " fill-opacity="1" fill-rule="nonzero"/><path fill="rgb(48.239136%, 52.549744%, 59.999084%)" d="M 187.410156 233.894531 L 146.375 233.894531 C 143.550781 233.894531 141.246094 231.585938 141.246094 228.753906 C 141.246094 225.925781 143.550781 223.617188 146.375 223.617188 L 187.410156 223.617188 C 190.234375 223.617188 192.539062 225.925781 192.539062 228.753906 C 192.539062 231.585938 190.234375 233.894531 187.410156 233.894531 " fill-opacity="1" fill-rule="nonzero"/><path fill="rgb(27.449036%, 67.449951%, 49.01886%)" d="M 64.308594 192.792969 L 59.179688 192.792969 C 56.355469 192.792969 54.050781 190.484375 54.050781 187.65625 C 54.050781 184.824219 56.355469 182.519531 59.179688 182.519531 L 64.308594 182.519531 C 67.132812 182.519531 69.4375 184.824219 69.4375 187.65625 C 69.4375 190.484375 67.132812 192.792969 64.308594 192.792969 " fill-opacity="1" fill-rule="nonzero"/><path fill="rgb(27.449036%, 67.449951%, 49.01886%)" d="M 64.308594 233.894531 L 59.179688 233.894531 C 56.355469 233.894531 54.050781 231.585938 54.050781 228.753906 C 54.050781 225.925781 56.355469 223.617188 59.179688 223.617188 L 64.308594 223.617188 C 67.132812 223.617188 69.4375 225.925781 69.4375 228.753906 C 69.4375 231.585938 67.132812 233.894531 64.308594 233.894531 " fill-opacity="1" fill-rule="nonzero"/><path fill="rgb(48.239136%, 52.549744%, 59.999084%)" d="M 173.726562 192.792969 L 146.375 192.792969 C 143.550781 192.792969 141.246094 190.484375 141.246094 187.65625 C 141.246094 184.824219 143.550781 182.519531 146.375 182.519531 L 156.574219 182.519531 L 173.726562 192.792969 " fill-opacity="1" fill-rule="nonzero"/><g clip-path="url(#clip-5)"><path fill="rgb(27.449036%, 67.449951%, 49.01886%)" d="M 247.457031 322.734375 C 245.453125 320.730469 242.207031 320.730469 240.203125 322.734375 L 238.703125 324.242188 L 238.703125 290.40625 C 238.703125 287.574219 236.398438 285.269531 233.574219 285.269531 C 230.746094 285.269531 228.441406 287.574219 228.441406 290.40625 L 228.441406 324.242188 L 226.941406 322.734375 C 224.9375 320.730469 221.691406 320.730469 219.6875 322.734375 C 217.683594 324.742188 217.683594 327.992188 219.6875 330 L 229.945312 340.277344 C 230.949219 341.277344 232.25 341.78125 233.574219 341.78125 C 234.894531 341.78125 236.195312 341.277344 237.199219 340.277344 L 247.457031 330 C 249.460938 327.992188 249.460938 324.742188 247.457031 322.734375 " fill-opacity="1" fill-rule="nonzero"/></g><g clip-path="url(#clip-6)"><path fill="rgb(93.328857%, 63.529968%, 6.269836%)" d="M 240.203125 71 L 238.703125 72.503906 L 238.703125 38.667969 C 238.703125 35.839844 236.398438 33.53125 233.574219 33.53125 C 230.746094 33.53125 228.441406 35.839844 228.441406 38.667969 L 228.441406 72.503906 L 226.941406 71 C 224.9375 68.992188 221.691406 68.992188 219.6875 71 C 217.683594 73.003906 217.683594 76.257812 219.6875 78.261719 L 229.945312 88.539062 C 230.949219 89.542969 232.25 90.042969 233.574219 90.042969 C 234.894531 90.042969 236.195312 89.542969 237.199219 88.539062 L 247.457031 78.261719 C 249.460938 76.257812 249.460938 73.003906 247.457031 71 C 245.453125 68.992188 242.207031 68.992188 240.203125 71 " fill-opacity="1" fill-rule="nonzero"/></g><path fill="rgb(93.328857%, 63.529968%, 6.269836%)" d="M 158.136719 81.273438 L 156.632812 82.777344 L 156.632812 48.941406 C 156.632812 46.113281 154.332031 43.804688 151.503906 43.804688 C 148.679688 43.804688 146.375 46.113281 146.375 48.941406 L 146.375 82.777344 L 144.875 81.273438 C 142.871094 79.265625 139.625 79.265625 137.621094 81.273438 C 135.617188 83.28125 135.617188 86.53125 137.621094 88.539062 L 147.878906 98.8125 C 148.878906 99.816406 150.183594 100.316406 151.503906 100.316406 C 152.828125 100.316406 154.128906 99.816406 155.132812 98.8125 L 165.390625 88.539062 C 167.394531 86.53125 167.394531 83.28125 165.390625 81.273438 C 163.386719 79.265625 160.140625 79.265625 158.136719 81.273438 " fill-opacity="1" fill-rule="nonzero"/><path fill="rgb(93.328857%, 63.529968%, 6.269836%)" d="M 199.171875 76.136719 L 197.667969 77.640625 L 197.667969 43.804688 C 197.667969 40.976562 195.363281 38.667969 192.539062 38.667969 C 189.714844 38.667969 187.410156 40.976562 187.410156 43.804688 L 187.410156 77.640625 L 185.90625 76.136719 C 183.902344 74.128906 180.65625 74.128906 178.652344 76.136719 C 176.652344 78.144531 176.652344 81.394531 178.652344 83.402344 L 188.914062 93.675781 C 189.914062 94.679688 191.214844 95.179688 192.539062 95.179688 C 193.859375 95.179688 195.164062 94.679688 196.164062 93.675781 L 206.421875 83.402344 C 208.425781 81.394531 208.425781 78.144531 206.421875 76.136719 C 204.421875 74.128906 201.175781 74.128906 199.171875 76.136719 " fill-opacity="1" fill-rule="nonzero"/><path fill="rgb(93.328857%, 63.529968%, 6.269836%)" d="M 281.238281 76.136719 L 279.734375 77.640625 L 279.734375 43.804688 C 279.734375 40.976562 277.429688 38.667969 274.605469 38.667969 C 271.78125 38.667969 269.476562 40.976562 269.476562 43.804688 L 269.476562 77.640625 L 267.972656 76.136719 C 265.96875 74.128906 262.726562 74.128906 260.722656 76.136719 C 258.71875 78.144531 258.71875 81.394531 260.722656 83.402344 L 270.980469 93.675781 C 271.980469 94.679688 273.285156 95.179688 274.605469 95.179688 C 275.929688 95.179688 277.230469 94.679688 278.234375 93.675781 L 288.492188 83.402344 C 290.496094 81.394531 290.496094 78.144531 288.492188 76.136719 C 286.488281 74.128906 283.242188 74.128906 281.238281 76.136719 " fill-opacity="1" fill-rule="nonzero"/><path fill="rgb(93.328857%, 63.529968%, 6.269836%)" d="M 329.523438 81.273438 C 327.519531 79.265625 324.273438 79.265625 322.273438 81.273438 L 320.769531 82.777344 L 320.769531 48.941406 C 320.769531 46.113281 318.464844 43.804688 315.640625 43.804688 C 312.816406 43.804688 310.511719 46.113281 310.511719 48.941406 L 310.511719 82.777344 L 309.007812 81.273438 C 307.003906 79.265625 303.757812 79.265625 301.753906 81.273438 C 299.75 83.28125 299.75 86.53125 301.753906 88.539062 L 312.011719 98.8125 C 313.015625 99.816406 314.316406 100.316406 315.640625 100.316406 C 316.960938 100.316406 318.265625 99.816406 319.265625 98.8125 L 329.523438 88.539062 C 331.527344 86.53125 331.527344 83.28125 329.523438 81.273438 " fill-opacity="1" fill-rule="nonzero"/></svg>